<?xml version="1.0" standalone="no"?>
<!DOCTYPE svg PUBLIC "-//W3C//DTD SVG 20010904//EN"
 "http://www.w3.org/TR/2001/REC-SVG-20010904/DTD/svg10.dtd">
<svg version="1.0" xmlns="http://www.w3.org/2000/svg"
 width="700.000000pt" height="700.000000pt" viewBox="0 0 700.000000 700.000000"
 preserveAspectRatio="xMidYMid meet">
<metadata>
Created by potrace 1.14, written by Peter Selinger 2001-2017
</metadata>
<g transform="translate(0.000000,700.000000) scale(0.100000,-0.100000)"
fill="#000000" stroke="none">
<path d="M3298 6995 c-1 -1 -46 -5 -99 -9 -53 -4 -104 -8 -115 -10 -10 -2 -41
-7 -69 -10 -27 -4 -72 -11 -100 -16 -27 -5 -63 -12 -80 -15 -16 -3 -43 -8 -60
-11 -125 -21 -489 -134 -612 -190 -28 -13 -54 -24 -58 -24 -11 0 -298 -146
-355 -180 -30 -18 -64 -38 -75 -44 -30 -17 -229 -149 -235 -156 -3 -3 -39 -31
-80 -62 -205 -153 -446 -394 -622 -620 -71 -91 -248 -350 -248 -363 0 -3 -11
-22 -23 -43 -68 -108 -192 -371 -244 -515 -14 -40 -28 -79 -31 -87 -3 -8 -6
-17 -6 -20 -1 -3 -6 -18 -13 -35 -28 -72 -94 -325 -108 -415 -3 -19 -8 -46
-10 -60 -11 -53 -13 -68 -20 -125 -4 -33 -9 -69 -11 -80 -19 -101 -26 -565
-11 -715 31 -305 91 -577 187 -855 17 -50 37 -103 45 -120 7 -16 23 -55 35
-85 28 -70 148 -312 183 -367 15 -24 27 -45 27 -49 0 -3 42 -70 94 -147 422
-632 1022 -1103 1731 -1358 125 -45 289 -94 385 -115 116 -26 260 -53 313 -60
29 -3 63 -8 77 -10 185 -26 657 -25 840 2 360 53 643 129 920 246 119 50 357
169 407 203 21 14 41 25 46 25 4 0 13 5 20 10 7 6 64 44 127 86 260 173 482
369 715 635 17 19 46 54 65 79 19 25 38 50 43 55 158 193 365 557 475 835 71
178 147 428 177 580 57 294 69 420 70 720 0 237 -13 419 -39 557 -2 10 -11 59
-21 108 -102 545 -352 1086 -706 1525 -237 294 -550 576 -838 755 -247 154
-451 254 -696 343 -108 39 -235 81 -265 87 -8 2 -42 10 -75 19 -71 18 -196 45
-245 52 -19 3 -60 9 -91 15 -31 5 -81 12 -110 15 -30 3 -67 8 -84 10 -34 6
-521 14 -527 9z"/>
</g>
</svg>
