<?xml version="1.0" encoding="UTF-8"?><svg id="Layer_1" xmlns="http://www.w3.org/2000/svg" viewBox="0 0 1079.7 1079.28"><path d="M457.07,706.34l-84.14-84.14c-3.91-3.9-10.24-3.9-14.14,0-3.86,3.86-3.9,10.09-.13,14l-20.69,20.69c-3.9,3.9-3.9,10.24,0,14.14l14.18,14.18-44.29,44.29-14.18-14.18c-3.91-3.9-10.24-3.9-14.14,0-3.9,3.9-3.9,10.24,0,14.14l70.26,70.26c1.95,1.95,4.51,2.93,7.07,2.93s5.12-.98,7.07-2.93c3.9-3.9,3.9-10.24,0-14.14l-14.18-14.18,44.29-44.29,14.18,14.18c1.95,1.95,4.51,2.93,7.07,2.93s5.12-.98,7.07-2.93l20.69-20.69c1.93,1.86,4.43,2.8,6.93,2.8s5.12-.98,7.07-2.93c3.91-3.9,3.91-10.24,0-14.14Zm-121.45,50.92l-13.61-13.61,44.29-44.29,13.61,13.61-44.29,44.29Zm79.68-37.18l-56.12-56.12,13.61-13.61,56.12,56.12-13.61,13.61Zm-204.88,78.5l-22.2-22.2c-3.9-3.9-10.24-3.9-14.14,0l-67.09,67.09c-1.88,1.88-2.93,4.42-2.93,7.07s1.05,5.2,2.93,7.07l15.13,15.13-52.95,52.95-6.81-6.81c-1.88-1.88-4.42-2.93-7.07-2.93s-5.2,1.05-7.07,2.93l-38.36,38.36c-3.9,3.9-3.9,10.24,0,14.14l6.81,6.8-13.74,13.75c-3.9,3.9-3.9,10.24,0,14.14l70.26,70.26c1.88,1.88,4.42,2.93,7.07,2.93s5.2-1.05,7.07-2.93l13.74-13.74,6.81,6.81c1.95,1.95,4.51,2.93,7.07,2.93s5.12-.98,7.07-2.93l38.36-38.36c3.9-3.9,3.9-10.24,0-14.14l-6.8-6.81,127.11-127.11c1.88-1.88,2.93-4.42,2.93-7.07s-1.05-5.2-2.93-7.07l-70.26-70.26Zm-82.22,51.96l52.95-52.95,8.06,8.06-52.95,52.95-8.06-8.06Zm-21.71,140.76l-24.22,24.22-18.53-18.53,24.22-24.22,18.53,18.53Zm-51.2-51.2l18.53,18.53-24.22,24.22-11.72-11.72s0,0,0,0,0,0,0,0l-6.8-6.8,24.22-24.22Zm24.96,115.03l-56.12-56.12,6.67-6.67,56.12,56.12-6.67,6.67Zm34.69-6.94l-18.53-18.53,24.22-24.22,18.53,18.53-24.22,24.22Zm24.48-52.24l-11.72-11.72s0,0,0,0,0,0,0,0l-32.67-32.67s0,0,0,0c0,0,0,0,0,0l-11.72-11.72,60.02-60.02s0,0,0,0,0,0,0,0l60.02-60.02,56.12,56.12-120.04,120.04Zm91.81-218.19c-3.9-3.9-10.24-3.9-14.14,0-3.9,3.9-3.9,10.24,0,14.14l70.26,70.26c1.95,1.95,4.51,2.93,7.07,2.93s5.12-.98,7.07-2.93c3.9-3.9,3.9-10.24,0-14.14l-70.26-70.26Zm20.82-20.82c-3.91-3.9-10.24-3.9-14.14,0-3.9,3.9-3.9,10.24,0,14.14l70.26,70.26c1.95,1.95,4.51,2.93,7.07,2.93s5.12-.98,7.07-2.93c3.9-3.9,3.9-10.24,0-14.14l-70.26-70.26Zm20.81-20.82c-3.91-3.9-10.24-3.9-14.14,0-3.9,3.9-3.9,10.24,0,14.14l70.26,70.26c1.95,1.95,4.51,2.93,7.07,2.93s5.12-.98,7.07-2.93c3.9-3.9,3.9-10.24,0-14.14l-70.26-70.26Z"/><path d="M1070.62,9.08h0c-12.1-12.1-31.72-12.1-43.82,0L420.34,615.54c-3.64,3.64-3.64,9.54,0,13.18l30.64,30.64c3.64,3.64,9.54,3.64,13.18,0L1070.62,52.9c12.1-12.1,12.1-31.72,0-43.82Z"/></svg>